<svg id="Group_3" data-name="Group 3" xmlns="http://www.w3.org/2000/svg" width="114.086" height="68.818" viewBox="0 0 114.086 68.818">
  <path id="Path_220" data-name="Path 220" d="M529.894,211.878v65.27a1.643,1.643,0,0,1-1.642,1.643h-110.8a1.382,1.382,0,0,1-.235-.018,1.642,1.642,0,0,1-1.408-1.625v-65.27a1.643,1.643,0,0,1,1.642-1.643h110.8a1.643,1.643,0,0,1,1.643,1.642Z" transform="translate(-415.808 -210.235)" fill="#f2f2f2"/>
  <circle id="Ellipse_29" data-name="Ellipse 29" cx="14.416" cy="14.416" r="14.416" transform="translate(13.513 9.975)" fill="#ff6584"/>
  <path id="Path_221" data-name="Path 221" d="M493.754,300.673H423.031a1.444,1.444,0,0,1-.264-.021l33.449-57.938a2.342,2.342,0,0,1,4.077,0l22.448,38.881,1.075,1.86Z" transform="translate(-420.616 -231.855)" fill="#3f3d56"/>
  <path id="Path_222" data-name="Path 222" d="M505.881,200.229H481.735l11.853-17.218.853-1.24.427-.62,1.076,1.86Z" transform="translate(-432.743 -131.411)" opacity="0.2"/>
  <path id="Path_223" data-name="Path 223" d="M643.12,338.848H581.95L593.8,321.631l.853-1.24L610.1,297.953a3.125,3.125,0,0,1,4.639-.277,2.78,2.78,0,0,1,.222.277Z" transform="translate(-530.604 -270.03)" fill="#3f3d56"/>
</svg>
