<svg xmlns="http://www.w3.org/2000/svg" width="86.097" height="86.097" viewBox="0 0 86.097 86.097">
  <g id="Group_9" data-name="Group 9" transform="translate(-278.203 -13.108)">
    <path id="Path_269" data-name="Path 269" d="M634.166,343.662a43.048,43.048,0,1,1,43.048-43.048A43.048,43.048,0,0,1,634.166,343.662Z" transform="translate(-312.915 -244.458)" fill="#6c63ff"/>
    <path id="Path_395" data-name="Path 395" d="M623.915,308.565a4.924,4.924,0,0,1-2.962-.984l-.053-.04-11.158-8.535a4.958,4.958,0,0,1,6.033-7.87L623,296.678,640.08,274.4a4.956,4.956,0,0,1,6.949-.918h0l-.106.147.109-.147a4.962,4.962,0,0,1,.917,6.95l-20.087,26.194a4.96,4.96,0,0,1-3.944,1.934Z" transform="translate(-304.861 -237.268)" fill="#fff"/>
  </g>
</svg>
